<svg xmlns="http://www.w3.org/2000/svg" id="c" viewBox="0 0 921.74 607.57"><defs><style>.j{fill:#f2f2f2}.k{fill:none;stroke:#f2f2f2;stroke-miterlimit:10}</style></defs><path d="M376.38 313.57c-35.53.56-36.41 1.01-37.5 19.1-1.09-18.09-1.97-18.54-37.5-19.1 35.53-.56 36.41-1.01 37.5-19.1 1.09 18.09 1.97 18.54 37.5 19.1Z" class="j"/><path d="M297.03 294.62c.36-1.43 1.26-2.2 2.7-2.32 34.42-4.88 64.34-10.42 89.76-16.62.72-.24 1.44-.15 2.16.27.72.42 1.26.98 1.62 1.7 1.56 4.65 2.46 8.04 2.7 10.19 1.44 5.72 3.72 8.58 6.84 8.58s5.31-.71 6.57-2.14c1.26-1.43 1.89-3.93 1.89-7.51 0-13.58-11.39-26.39-34.18-38.42l-1.44 1.61a83.1 83.1 0 0 1 14.39 19.66c.24.36.36.71.36 1.07.12.84-.09 1.61-.63 2.32s-1.23 1.07-2.07 1.07c-21.71 2.5-41.91 4.47-60.62 5.9-1.08.12-1.98-.24-2.7-1.07-.48-.59-.69-1.34-.63-2.23.06-.89.45-1.64 1.17-2.23 24.34-19.66 44.19-39.26 59.54-58.8.84-.95 1.92-1.31 3.24-1.07 1.44.24 3.42.36 5.94.36s4.2-.18 5.04-.54l.72-.71c0-.83-.69-1.97-2.07-3.4s-3.84-3.33-7.38-5.72c-3.54-2.38-7.95-4.83-13.22-7.33-17.87 31.34-38.38 58.98-61.52 82.92-.6.6-1.32.89-2.16.89l-28.24 1.43c3.36 12.04 6.3 19.18 8.81 21.45 1.2-1.55 2.34-4.65 3.42-9.29Zm18.17-61.83c1.56 6.2 4.08 9.29 7.55 9.29 3.12 0 5.33-.74 6.66-2.23 1.32-1.49 1.98-4.02 1.98-7.6 0-6.19-3.72-13.05-11.15-20.55-.6-.47-.9-1.19-.9-2.14s.3-1.73.9-2.32a189.4 189.4 0 0 0 29.5-33.06c.6-.95 1.44-1.43 2.52-1.43 6.48 0 10.43-.59 11.87-1.79-.12-.59-1.02-1.55-2.7-2.86-1.68-1.31-4.5-3.01-8.46-5.09-3.96-2.08-8.7-4.2-14.21-6.34-6.12 18.59-12.95 34.67-20.51 48.25-.36.83-1.02 1.37-1.98 1.61s-1.8.06-2.52-.54c-6.6-4.76-15.35-9.47-26.26-14.12l-1.26 1.79c15.59 12.51 25.24 25.56 28.96 39.14Zm-86.49 165.18c-31.67.97-32.46 1.76-33.43 33.43-.97-31.67-1.76-32.46-33.43-33.43 31.67-.97 32.46-1.76 33.43-33.43.97 31.67 1.76 32.46 33.43 33.43Zm-30.62-139.09-1.26 1.43c5.76 5.72 10.37 11.5 13.85 17.34.24.48.36.96.36 1.43.12.83-.09 1.58-.63 2.23-.54.66-1.29.98-2.25.98-12.83 1.07-27.1 2.14-42.81 3.22l-8.31.67-10.56 10.56c17.92-2.72 37.94-6.28 60.06-10.7l5.04-1.07c1.8-.36 3 .3 3.6 1.97 1.8 4.53 2.82 8.28 3.06 11.26.6 3.69 1.44 6.26 2.52 7.69 1.08 1.43 2.58 2.09 4.5 1.97 3 0 5.1-.68 6.3-2.06 1.2-1.37 1.86-3.78 1.98-7.24 0-15.13-11.81-28.35-35.44-39.67Z" class="j"/><path d="M408.37 437.24c0-7.86 1.8-22.28 5.4-43.25l-3.78-1.61c-3.36 18.47-7.17 32.41-11.42 41.82-4.26 9.41-9.56 14.12-15.92 14.12-4.08 0-11.81-2.92-23.21-8.76-13.67-7.39-25.48-15.55-35.44-24.48-.6-.6-.9-1.37-.9-2.32s.36-1.73 1.08-2.32c13.91-12.03 26.14-24.96 36.7-38.78.72-.95 1.68-1.31 2.88-1.07 1.8.12 4.38.18 7.73.18 1.08 0 2.07-.06 2.97-.18.9-.12 1.56-.24 1.98-.36.42-.12.63-.24.63-.36 0-.59-.63-1.58-1.89-2.95-1.26-1.37-3.69-3.33-7.29-5.9-3.6-2.56-7.91-5.27-12.95-8.13-12.35 19.3-25.78 35.98-40.29 50.04-.6.6-1.35.87-2.25.8-.9-.06-1.65-.45-2.25-1.16-14.39-16.32-25.3-36.16-32.74-59.51v-.89c0-.83.3-1.55.9-2.14.6-.59 1.32-.95 2.16-1.07h140.31l1.8-3.4c-7.08-8.1-13.61-14.59-19.61-19.48l-16.19 18.94c-.6.71-1.38 1.07-2.34 1.07H277.95c-1.56.12-2.58-.59-3.06-2.14-9.82-35.62-14.73-85.91-14.75-150.87l-15 15c.8 56.09 5.86 101.14 15.18 135.15.12.36.18.66.18.89 0 .84-.33 1.55-.99 2.14-.66.6-1.41.89-2.25.89H106.07l-2.86 2.86h60.89c.84 0 1.59.33 2.25.98.66.66.93 1.4.81 2.23-1.08 51.59-23.27 93.05-66.56 124.39l2.34 3.22c38.85-21.21 63.38-49.62 73.57-85.25v-.02l2.51-9.24v-.03c2.04-11.08 3.42-22.16 4.14-33.24 0-.71.3-1.4.9-2.06.6-.65 1.32-.98 2.16-.98h73.57c1.56 0 2.58.78 3.06 2.32 7.55 25.86 19.67 49.27 36.34 70.24 1.2 1.55 1.08 2.98-.36 4.29-26.98 24.66-58.52 43.31-94.62 55.94l1.62 3.22c40.89-11.44 75.19-28.48 102.89-51.11 1.44-1.07 2.82-1.01 4.14.18 10.79 10.25 22.9 19.3 36.34 27.16 21.23 12.15 39.45 18.23 54.68 18.23 4.68 0 8.39-.87 11.15-2.59 2.76-1.73 4.86-4.44 6.3-8.13-8.63-2.62-12.95-10.13-12.95-22.52Z" class="j"/><path d="M358.62 84.61 75.28 367.94" class="k"/><path d="M70.18 373.05c-9.89 11.36-9.89 12.55 0 23.9-11.36-9.89-12.55-9.89-23.9 0 9.89-11.36 9.89-12.55 0-23.9 11.36 9.89 12.55 9.89 23.9 0Zm650-13.37v41.46c0 .84.3 1.58.9 2.23.6.66 1.32.98 2.16.98h74.83c.96 0 1.74-.42 2.34-1.25l16.37-18.77c7.79 6.67 14.69 13.29 20.69 19.84l-2.34 3.04H723.24c-.84 0-1.56.33-2.16.98-.6.66-.9 1.34-.9 2.06v45.04c0 .83.3 1.55.9 2.14.6.59 1.32.89 2.16.89h106.49c.96 0 1.74-.36 2.34-1.07l18.17-20.73c8.99 7.63 16.55 14.71 22.66 21.27l-2.34 3.4H552.89l-1.08-2.86h149.66c.84 0 1.56-.3 2.16-.89.6-.6.9-1.31.9-2.14l.18-45.04c0-.83-.36-1.55-1.08-2.14-.72-.59-1.44-.89-2.16-.89H591.2l-1.26-2.86h111.53c.84 0 1.59-.33 2.25-.98.66-.65.99-1.4.99-2.23V359.7c0-.83-.33-1.58-.99-2.23-.66-.65-1.41-.98-2.25-.98h-128.8l-1.26-2.86h245c.96 0 1.74-.36 2.34-1.07l16.37-18.59c7.55 5.72 14.63 12.21 21.23 19.48l-1.98 3.04H723.23c-.84 0-1.56.36-2.16 1.07-.6.71-.9 1.43-.9 2.14Zm67.79-193.83c-2.72 0-5.4.15-8.05.43 31.94 3.62 56.76 30.72 56.76 63.63 0 35.38-28.68 64.05-64.05 64.05-27.75 0-51.37-17.65-60.27-42.33 4.7 37.59 36.75 66.69 75.61 66.69 42.1 0 76.23-34.13 76.23-76.23s-34.13-76.23-76.23-76.23Z" class="j"/><path d="M784.52 175.24c-15.02 1.04-15.86 1.88-16.9 16.9-1.04-15.02-1.88-15.86-16.9-16.9 15.02-1.04 15.86-1.88 16.9-16.9 1.04 15.02 1.88 15.86 16.9 16.9Zm-103.2 115.81c-1.68 0-3.06.12-4.14.36H677c-11.87 1.43-26.5 2.14-43.89 2.14-12.47.12-20.69-.47-24.64-1.79-4.92-1.79-7.32-6.73-7.2-14.83l-.02-5.4-14.87 14.87c.35 8.17 2.37 13.54 6.07 16.09 1.8 1.19 6.86 2.21 15.2 3.04 8.33.84 19.04 1.25 32.11 1.25 24.46.12 40.11-.42 46.95-1.61 2.88-.71 4.32-1.79 4.32-3.22.12-3.93-.6-6.73-2.16-8.4s-4.08-2.5-7.56-2.5Zm11.88-104.37-15.29 19.12c-.72.83-1.56 1.25-2.52 1.25h-9.65l-2.86 2.86h46.87l1.62-3.22c-6.36-8.1-12.41-14.77-18.17-20.02Z" class="j"/><path d="M788.28 84.79 505.13 367.94" class="k"/><path d="M500.02 373.05c-9.89 11.36-9.89 12.55 0 23.9-11.36-9.89-12.55-9.89-23.9 0 9.89-11.36 9.89-12.55 0-23.9 11.36 9.89 12.55 9.89 23.9 0Z" class="j"/><path d="M608.08 20.7 466.74 162.04" class="k"/><path d="M462.37 166.4c-9.89 11.36-9.89 12.55 0 23.9-11.36-9.89-12.55-9.89-23.9 0 9.89-11.36 9.89-12.55 0-23.9 11.36 9.89 12.55 9.89 23.9 0ZM248.8 567.81v-62.63h3.08v37.25h.26l11.11-12.3 22.3-24.95h3.93l-23.92 26.57 24.52 36.05h-3.84l-22.81-33.92-11.53 12.56v21.36h-3.08Zm92.86 0v-2.65h9.48v-57.33h-9.48v-2.65h21.96v2.65h-9.4v57.33h9.4v2.65h-21.96Zm81.07 0v-62.63h23.32c9.14 0 14.61 5.55 14.61 15.46 0 8.12-3.76 12.3-8.97 13.84v.34c7.01 1.11 11.71 6.66 11.71 15.8 0 10.25-5.64 17.17-15.72 17.17h-24.95Zm3.08-34.18h19.99c7.78 0 11.53-5.13 11.53-11.02v-3.59c0-5.98-3.76-11.02-11.53-11.02h-19.99v25.63Zm0 31.36h21.44c8.63 0 12.73-5.81 12.73-12.47v-3.67c0-6.66-4.1-12.47-12.73-12.47h-21.44V565ZM627 505.19h3.16v38.62c0 15.98 4.27 22.3 17.6 22.3s17.69-6.32 17.69-22.3v-38.62h3.08v38.02c0 18.54-5.38 25.72-20.76 25.72s-20.76-7.18-20.76-25.72v-38.02Zm-51.4 25.13c.16 1.29.26 2.61.26 3.95 0 17.13-13.89 31.02-31.02 31.02s-31.02-13.89-31.02-31.02c0-11.58 6.35-21.67 15.75-27-10.76 5.26-18.17 16.32-18.17 29.1 0 17.89 14.5 32.39 32.39 32.39s32.39-14.5 32.39-32.39c0-2.07-.2-4.09-.57-6.05Z" class="j"/><path d="M271.37 586.87h374.58" class="k"/></svg>